<svg width="32" height="32" viewBox="0 0 32 32" fill="none" xmlns="http://www.w3.org/2000/svg">
<g clip-path="url(#clip0_9446_951)">
<path d="M20.8223 9.99185C20.8248 8.20521 20.131 6.52502 18.8687 5.26077L15.5666 1.95367C14.3024 0.691317 12.6221 -0.00250195 10.8355 6.77957e-06C9.04879 0.00260249 7.3706 0.701182 6.1099 1.96713L4.04113 4.03589L1.97237 6.10465C0.706431 7.36536 0.00776453 9.04362 0.0052558 10.8303C0.00274708 12.6169 0.696566 14.2971 1.95892 15.5614L5.90519 19.5107L4.554 20.8619L9.12349 21.1772L8.80831 16.6076L7.47417 17.9418L3.52912 13.9936C2.68586 13.1491 2.22246 12.0268 2.22408 10.8335C2.22579 9.64004 2.69244 8.51901 3.53807 7.67693L5.61363 5.60838L7.68217 3.53283C8.52417 2.68728 9.6452 2.22063 10.8387 2.21883C12.032 2.21721 13.1544 2.68062 13.9988 3.52387L17.2985 6.82857C18.1418 7.67303 18.6052 8.79534 18.6035 9.98867C18.6017 11.1822 18.1351 12.3032 17.2896 13.1452L15.214 15.2138L16.7865 16.7862L18.8551 14.7176C20.1212 13.4568 20.8197 11.7786 20.8223 9.99185Z" fill="#704FE6"/>
<path d="M11.1779 22.0081C11.1754 23.7947 11.8692 25.4749 13.1316 26.7392L16.4336 30.0463C17.6979 31.3086 19.3781 32.0025 21.1647 32C22.9515 31.9974 24.6297 31.2988 25.8904 30.0328L27.9591 27.9641L30.0279 25.8953C31.2938 24.6346 31.9925 22.9563 31.995 21.1697C31.9975 19.3831 31.3037 17.7028 30.0413 16.4386L26.0951 12.4892L27.4463 11.138L22.8768 10.8228L23.1919 15.3923L24.5261 14.0582L28.4711 18.0064C29.3144 18.8508 29.7778 19.9732 29.7762 21.1665C29.7745 22.3599 29.3078 23.4809 28.4622 24.323L26.3866 26.3916L24.3181 28.4671C23.4761 29.3127 22.3551 29.7793 21.1615 29.7811C19.9682 29.7827 18.8459 29.3193 18.0014 28.4761L14.7017 25.1714C13.8585 24.3269 13.3951 23.2046 13.3967 22.0113C13.3985 20.8178 13.8652 19.6968 14.7107 18.8547L16.7863 16.7862L15.2138 15.2137L13.1451 17.2824C11.8791 18.5432 11.1805 20.2214 11.1779 22.0081Z" fill="#704FE6"/>
<path d="M9.99185 11.178C8.20521 11.1755 6.52502 11.8693 5.26077 13.1316L1.95367 16.4337C0.691317 17.698 -0.00250195 19.3782 6.77957e-06 21.1648C0.00260249 22.9515 0.701182 24.6297 1.96713 25.8904L4.03589 27.9592L6.10465 30.0279C7.36535 31.2939 9.04362 31.9926 10.8303 31.9951C12.6169 31.9976 14.2971 31.3038 15.5614 30.0414L19.5107 26.0951L20.8619 27.4463L21.1772 22.8768L16.6076 23.192L17.9418 24.5261L13.9936 28.4712C13.1491 29.3145 12.0268 29.7779 10.8335 29.7762C9.64004 29.7745 8.51901 29.3079 7.67693 28.4622L5.60838 26.3867L3.53283 24.3181C2.68728 23.4761 2.22063 22.3551 2.21883 21.1616C2.21721 19.9683 2.68062 18.8459 3.52387 18.0015L6.82857 14.7018C7.67303 13.8585 8.79534 13.3952 9.98867 13.3968C11.1822 13.3986 12.3032 13.8653 13.1452 14.7108L15.2138 16.7863L16.7862 15.2139L14.7176 13.1452C13.4568 11.8791 11.7786 11.1806 9.99185 11.178Z" fill="#704FE6"/>
<path d="M22.0082 20.8222C23.7948 20.8247 25.475 20.1309 26.7393 18.8686L30.0464 15.5665C31.3087 14.3022 32.0025 12.622 32 10.8354C31.9974 9.04866 31.2988 7.37048 30.0329 6.10977L27.9641 4.04101L25.8954 1.97225C24.6347 0.706309 22.9564 0.00764246 21.1698 0.00513373C19.3831 0.00262501 17.7029 0.696443 16.4387 1.9588L12.4893 5.90506L11.1381 4.55388L10.8228 9.12337L15.3924 8.80819L14.0583 7.47405L18.0064 3.52899C18.8509 2.68574 19.9732 2.22234 21.1666 2.22396C22.36 2.22567 23.481 2.69232 24.3231 3.53795L26.3916 5.61351L28.4672 7.68205C29.3127 8.52405 29.7794 9.64508 29.7812 10.8386C29.7828 12.0319 29.3194 13.1543 28.4761 13.9987L25.1715 17.2984C24.327 18.1416 23.2047 18.605 22.0113 18.6034C20.8178 18.6016 19.6968 18.1349 18.8548 17.2894L16.7862 15.2139L15.2138 16.7863L17.2825 18.855C18.5432 20.1211 20.2214 20.8196 22.0082 20.8222Z" fill="#704FE6"/>
</g>
<defs>
<clipPath id="clip0_9446_951">
<rect width="32" height="32" fill="white"/>
</clipPath>
</defs>
</svg>
